<svg width="26" height="25" viewBox="0 0 26 25" fill="none" xmlns="http://www.w3.org/2000/svg">
<path fill-rule="evenodd" clip-rule="evenodd" d="M13 0C6.09644 0 0.5 5.59644 0.5 12.5C0.5 19.4036 6.09644 25 13 25C19.9036 25 25.5 19.4036 25.5 12.5C25.5 5.59644 19.9036 0 13 0ZM7.14062 8.59375C7.14062 7.51507 8.01507 6.64062 9.09375 6.64062H16.9062C17.9849 6.64062 18.8594 7.51507 18.8594 8.59375V16.4062C18.8594 17.4849 17.9849 18.3594 16.9062 18.3594H9.09375C8.01507 18.3594 7.14062 17.4849 7.14062 16.4062V8.59375ZM5.96875 8.59375C5.96875 6.86786 7.36786 5.46875 9.09375 5.46875H16.9062C18.6321 5.46875 20.0312 6.86786 20.0312 8.59375V16.4062C20.0312 18.1321 18.6321 19.5312 16.9062 19.5312H9.09375C7.36786 19.5312 5.96875 18.1321 5.96875 16.4062V8.59375ZM13 15.2344C14.5102 15.2344 15.7344 14.0102 15.7344 12.5C15.7344 10.9898 14.5102 9.76562 13 9.76562C11.4898 9.76562 10.2656 10.9898 10.2656 12.5C10.2656 14.0102 11.4898 15.2344 13 15.2344ZM13 16.4062C15.1574 16.4062 16.9062 14.6574 16.9062 12.5C16.9062 10.3426 15.1574 8.59375 13 8.59375C10.8426 8.59375 9.09375 10.3426 9.09375 12.5C9.09375 14.6574 10.8426 16.4062 13 16.4062ZM16.7109 9.76562C17.2503 9.76562 17.6875 9.3284 17.6875 8.78906C17.6875 8.24972 17.2503 7.8125 16.7109 7.8125C16.1716 7.8125 15.7344 8.24972 15.7344 8.78906C15.7344 9.3284 16.1716 9.76562 16.7109 9.76562Z" fill="black"/>
</svg>
